<?xml version="1.0" encoding="UTF-8" standalone="no"?>
<!-- Created with Inkscape (http://www.inkscape.org/) -->

<svg
   version="1.1"
   id="svg25366"
   xml:space="preserve"
   width="1066.6667"
   height="1066.6667"
   viewBox="0 0 1066.6667 1066.6667"
   sodipodi:docname="prayer-boy-silhouette-pdv.svg"
   inkscape:version="1.1.2 (b8e25be833, 2022-02-05)"
   xmlns:inkscape="http://www.inkscape.org/namespaces/inkscape"
   xmlns:sodipodi="http://sodipodi.sourceforge.net/DTD/sodipodi-0.dtd"
   xmlns="http://www.w3.org/2000/svg"
   xmlns:svg="http://www.w3.org/2000/svg"><defs
     id="defs25370"><clipPath
       clipPathUnits="userSpaceOnUse"
       id="clipPath25380"><path
         d="M 0,800 H 800 V 0 H 0 Z"
         id="path25378" /></clipPath></defs><sodipodi:namedview
     id="namedview25368"
     pagecolor="#ffffff"
     bordercolor="#666666"
     borderopacity="1.0"
     inkscape:pageshadow="2"
     inkscape:pageopacity="0.0"
     inkscape:pagecheckerboard="0"
     showgrid="false"
     inkscape:zoom="0.77906244"
     inkscape:cx="533.33337"
     inkscape:cy="533.33337"
     inkscape:window-width="1920"
     inkscape:window-height="1018"
     inkscape:window-x="-8"
     inkscape:window-y="-8"
     inkscape:window-maximized="1"
     inkscape:current-layer="g25372" /><g
     id="g25372"
     inkscape:groupmode="layer"
     inkscape:label="prayer-boy-silhouette-pdv"
     transform="matrix(1.3333333,0,0,-1.3333333,0,1066.6667)"><g
       id="g25374"><g
         id="g25376"
         clip-path="url(#clipPath25380)"><path
           d="m 609.218,456.82 c 13.746,-2.132 27.545,-1.228 41.304,2.555 17.007,4.672 31.696,13.761 44.878,25.386 16.207,14.301 29.059,30.59 38.329,48.971 L 603.946,471.294 Z"
           style="fill:#dae262;fill-opacity:1;fill-rule:nonzero;stroke:none"
           id="path25382" /><path
           d="m 689.404,725.881 c -0.431,0.834 -0.863,1.668 -1.3,2.499 -2.83,5.381 -3.626,7.714 -10.573,3.349 -0.073,-0.044 -0.146,-0.059 -0.218,-0.103 -1.931,-1.169 -3.541,-0.892 -5.089,0.819 -3.555,3.912 -6.772,8.087 -10.091,12.188 -3.714,4.599 -7.224,9.381 -11.53,13.461 -2.245,2.12 -4.05,2.076 -6.266,-0.058 -1.258,-1.222 -2.361,-2.603 -3.561,-3.89 -1.499,-1.594 -3.224,-1.996 -5.175,-0.87 -1.938,1.118 -3.899,2.201 -5.785,3.392 -5.615,3.532 -10.938,7.509 -16.743,10.733 -1.345,0.746 -2.925,2.077 -4.401,0.827 -1.558,-1.324 -0.484,-3.137 0.065,-4.68 1.097,-3.085 2.728,-5.965 3.495,-9.168 0.578,-2.398 -0.044,-3.21 -2.493,-2.925 -3.173,0.366 -6.332,0.892 -9.454,1.55 -5.894,1.231 -11.764,2.507 -17.701,3.26 l 4.215,-140.374 z"
           style="fill:#df2200;fill-opacity:1;fill-rule:nonzero;stroke:none"
           id="path25384" /><path
           d="m 742.971,622.094 c -3.427,9.214 -6.998,18.38 -10.736,27.475 -6.492,15.8 -13,31.608 -20.325,47.049 -1.068,2.253 -2.449,3.364 -5.046,2.86 -3.808,-0.739 -3.888,-0.709 -5.658,2.785 -3.964,7.855 -7.764,15.804 -11.802,23.618 L 586.799,615.891 Z"
           style="fill:#dc2b00;fill-opacity:1;fill-rule:nonzero;stroke:none"
           id="path25386" /><path
           d="m 735.707,537.805 c 5.141,10.986 9.041,22.697 11.642,35.162 3.297,15.815 2.164,31.439 -3.473,46.706 -0.299,0.808 -0.605,1.613 -0.905,2.421 l -156.172,-6.203 z"
           style="fill:#df5e00;fill-opacity:1;fill-rule:nonzero;stroke:none"
           id="path25388" /><path
           d="m 603.946,471.294 129.783,62.438 c 0.679,1.346 1.337,2.704 1.978,4.073 l -148.908,78.086 z"
           style="fill:#e88200;fill-opacity:1;fill-rule:nonzero;stroke:none"
           id="path25390" /><path
           d="m 596.316,459.723 c 4.293,-1.27 8.595,-2.235 12.902,-2.903 l -5.272,14.474 z"
           style="fill:#dcf07c;fill-opacity:1;fill-rule:nonzero;stroke:none"
           id="path25392" /><path
           d="m 552.039,359.435 c 1.134,9.784 2.157,19.581 2.995,29.399 0.26,3.034 0.435,6.069 0.542,9.104 l -21.611,-32.774 z"
           style="fill:#dcf07c;fill-opacity:1;fill-rule:nonzero;stroke:none"
           id="path25394" /><path
           d="m 477.237,98.08 c 4.88,10.735 9.99,21.369 15.562,31.796 6.129,11.468 11.248,23.465 16.266,35.49 L 462.13,100.533 Z"
           style="fill:#31bded;fill-opacity:1;fill-rule:nonzero;stroke:none"
           id="path25396" /><path
           d="m 466.191,72.957 c 3.612,8.405 7.261,16.795 11.046,25.123 l -15.107,2.453 z"
           style="fill:#0181dd;fill-opacity:1;fill-rule:nonzero;stroke:none"
           id="path25398" /><path
           d="m 462.13,100.533 46.935,64.833 c 0.645,1.545 1.289,3.091 1.932,4.635 8.072,19.39 15.918,38.896 20.758,59.391 0.181,0.764 0.349,1.53 0.526,2.296 L 447.3,173.759 Z"
           style="fill:#8bebdb;fill-opacity:1;fill-rule:nonzero;stroke:none"
           id="path25400" /><path
           d="M 586.799,615.891 527.477,498.638 603.946,471.294 Z"
           style="fill:#f38900;fill-opacity:1;fill-rule:nonzero;stroke:none"
           id="path25402" /><path
           d="m 548.833,333.68 c 1.127,8.577 2.21,17.161 3.206,25.755 l -18.074,5.729 z"
           style="fill:#b7f3bb;fill-opacity:1;fill-rule:nonzero;stroke:none"
           id="path25404" /><path
           d="m 562.122,756.072 c -12.205,-1.827 -23.32,-6.051 -32.751,-14.575 -4.81,-4.344 -9.606,-8.686 -14.338,-13.102 -2.42,-2.26 -5.198,-2.764 -8.218,-1.828 -3.635,1.137 -7.365,1.837 -11.086,2.569 l 16.454,-135.028 z"
           style="fill:#ef3500;fill-opacity:1;fill-rule:nonzero;stroke:none"
           id="path25406" /><path
           d="m 586.799,615.891 -4.215,140.374 c -5.241,0.666 -10.537,0.926 -15.953,0.374 -1.52,-0.155 -3.022,-0.344 -4.509,-0.567 L 512.183,594.108 Z"
           style="fill:#f43800;fill-opacity:1;fill-rule:nonzero;stroke:none"
           id="path25408" /><path
           d="m 512.183,594.108 15.294,-95.47 59.322,117.253 z"
           style="fill:#f77700;fill-opacity:1;fill-rule:nonzero;stroke:none"
           id="path25410" /><path
           d="m 527.477,498.638 6.488,-133.474 21.611,32.774 c 0.358,10.058 -0.058,20.12 -0.879,30.173 -0.233,2.91 -1.234,5.089 -4.437,5.63 -1.696,0.279 -2.171,1.448 -2.018,2.99 0.402,4.043 1.396,7.897 4.095,11.063 4.935,5.784 10.754,10.47 17.701,13.644 3.787,1.739 7.706,2.398 11.902,1.747 4.198,-0.651 8.336,-1.557 12.358,-2.844 0.672,-0.215 1.346,-0.419 2.018,-0.618 l 7.63,11.571 z"
           style="fill:#f2da4a;fill-opacity:1;fill-rule:nonzero;stroke:none"
           id="path25412" /><path
           d="m 495.729,729.136 c -1.757,0.346 -3.512,0.698 -5.255,1.108 -7.136,1.675 -14.594,2.326 -21.174,5.813 -7.033,3.721 -14.397,3.905 -21.935,2.727 -4.46,-0.694 -7.633,-4.365 -8.174,-8.832 -0.38,-3.166 -0.672,-6.354 -1.462,-9.461 -0.951,-3.728 -3.012,-6.478 -6.698,-7.86 -2.309,-0.877 -4.62,-1.777 -6.96,-2.588 -4.971,-1.711 -10.06,-3.07 -14.974,-5.03 -3.978,-1.58 -5.894,-4.395 -5.959,-8.628 -0.029,-1.915 -0.11,-3.831 -0.358,-5.733 -0.373,-2.821 -1.835,-4.079 -4.687,-4.049 -1.586,0.006 -3.173,0.306 -4.76,0.453 -6.272,0.555 -8.788,-1.097 -10.419,-7.224 -1.067,-4.007 -1.783,-8.116 -2.127,-12.255 -0.19,-2.339 -1.112,-3.875 -3.239,-4.84 -3.342,-1.52 -6.632,-3.158 -9.951,-4.737 -4.869,-2.311 -8.423,-5.974 -10.996,-10.66 -0.428,-0.779 -0.817,-1.567 -1.164,-2.359 l 156.746,-50.873 z"
           style="fill:#fb6100;fill-opacity:1;fill-rule:nonzero;stroke:none"
           id="path25414" /><path
           d="m 391.222,318.355 149.584,-41.957 c 2.711,17.116 4.965,34.308 7.26,51.488 0.258,1.93 0.513,3.862 0.767,5.794 l -14.868,31.484 z"
           style="fill:#d8f890;fill-opacity:1;fill-rule:nonzero;stroke:none"
           id="path25416" /><path
           d="m 447.3,173.759 84.981,57.929 c 3.421,14.802 6.152,29.726 8.525,44.71 l -149.584,41.957 z"
           style="fill:#c5f5c1;fill-opacity:1;fill-rule:nonzero;stroke:none"
           id="path25418" /><path
           d="M 462.13,100.533 407.269,28.984 h 37.223 c 1.338,1.682 2.859,3.225 3.853,5.155 2.589,5.038 5.426,9.943 7.684,15.164 3.416,7.872 6.775,15.769 10.162,23.654 z"
           style="fill:#6cb0c4;fill-opacity:1;fill-rule:nonzero;stroke:none"
           id="path25420" /><path
           d="m 527.477,498.638 -135.068,24.251 c -0.069,-0.328 -0.136,-0.657 -0.209,-0.986 -3.122,-14.052 -8.013,-27.418 -15.537,-39.745 -2.296,-3.759 -5.615,-5.812 -9.973,-6.193 -3.985,-0.345 -7.801,-1.233 -11.412,-2.749 l 35.944,-154.861 z"
           style="fill:#ffd100;fill-opacity:1;fill-rule:nonzero;stroke:none"
           id="path25422" /><path
           d="M 527.477,498.638 391.222,318.355 533.965,365.164 Z"
           style="fill:#f9ed2d;fill-opacity:1;fill-rule:nonzero;stroke:none"
           id="path25424" /><path
           d="M 512.183,594.108 394.24,551.162 c 0.773,-9.285 0.199,-18.709 -1.831,-28.273 l 135.068,-24.251 z"
           style="fill:#fd9d00;fill-opacity:1;fill-rule:nonzero;stroke:none"
           id="path25426" /><path
           d="m 355.437,644.981 c -2.937,-6.682 -2.791,-13.726 4.68,-19.649 2.756,-2.179 5.198,-4.68 7.333,-7.531 7.838,-10.441 13.432,-22.103 18.498,-34.013 4.542,-10.681 7.371,-21.555 8.292,-32.626 l 117.943,42.946 z"
           style="fill:#ff9300;fill-opacity:1;fill-rule:nonzero;stroke:none"
           id="path25428" /><path
           d="M 447.3,173.759 391.222,318.355 376.855,183.954 Z"
           style="fill:#cbf387;fill-opacity:1;fill-rule:nonzero;stroke:none"
           id="path25430" /><path
           d="m 352.292,83.386 -0.591,-54.402 h 55.568 l 54.861,71.549 z"
           style="fill:#8bcfa3;fill-opacity:1;fill-rule:nonzero;stroke:none"
           id="path25432" /><path
           d="M 376.855,183.954 462.13,100.533 447.3,173.759 Z"
           style="fill:#96eaa2;fill-opacity:1;fill-rule:nonzero;stroke:none"
           id="path25434" /><path
           d="m 352.292,83.386 109.838,17.147 -85.275,83.421 z"
           style="fill:#9ae292;fill-opacity:1;fill-rule:nonzero;stroke:none"
           id="path25436" /><path
           d="m 391.222,318.355 -35.944,154.861 c -1.517,-0.638 -2.999,-1.384 -4.439,-2.251 -14.857,-8.935 -30.058,-17.351 -43.957,-27.763 -15.368,-11.514 -30.164,-23.659 -44.332,-36.496 l -27.974,-44.323 z"
           style="fill:#ffce00;fill-opacity:1;fill-rule:nonzero;stroke:none"
           id="path25438" /><path
           d="m 234.576,362.383 -44.491,-171.941 186.77,-6.488 z"
           style="fill:#f0d03c;fill-opacity:1;fill-rule:nonzero;stroke:none"
           id="path25440" /><path
           d="M 391.222,318.355 234.576,362.383 376.855,183.954 Z"
           style="fill:#f6e63a;fill-opacity:1;fill-rule:nonzero;stroke:none"
           id="path25442" /><path
           d="m 299.984,639.037 c 4.482,11.24 9.001,22.466 13.303,33.776 2.588,6.829 2.94,13.848 2.157,20.999 -0.256,2.369 -1.44,4.116 -3.59,5.322 -3.612,2.025 -3.912,2.618 -2.8,6.741 1.133,4.189 0.754,8.233 -0.533,12.262 -2.19,6.886 -8.222,10.23 -14.26,8.812 L 212.33,628.403 Z"
           style="fill:#fb6800;fill-opacity:1;fill-rule:nonzero;stroke:none"
           id="path25444" /><path
           d="M 190.085,190.442 352.292,83.386 376.855,183.954 Z"
           style="fill:#c7df6f;fill-opacity:1;fill-rule:nonzero;stroke:none"
           id="path25446" /><path
           d="m 262.55,406.706 c -12.132,-10.992 -23.797,-22.5 -34.959,-34.559 l 6.985,-9.764 z"
           style="fill:#feb200;fill-opacity:1;fill-rule:nonzero;stroke:none"
           id="path25448" /><path
           d="m 197.122,414.737 c 1.091,4.892 2.214,9.777 3.334,14.661 3.934,17.19 8.021,34.35 13.388,51.174 2.266,7.12 6.309,12.773 12.758,16.444 5.039,2.87 9.832,6.086 14.525,9.441 L 148.374,482.88 Z"
           style="fill:#feb200;fill-opacity:1;fill-rule:nonzero;stroke:none"
           id="path25450" /><path
           d="m 294.261,726.949 c -1.828,-0.429 -3.657,-1.29 -5.379,-2.627 -1.888,-1.469 -3.656,-1.66 -5.719,-0.446 -1.988,1.185 -4.014,2.318 -6.119,3.276 -2.435,1.097 -4.716,0.665 -6.507,-1.411 -1.988,-2.289 -4.029,-4.555 -5.849,-6.975 -5.243,-6.961 -10.346,-14.016 -15.581,-20.978 -2.303,-3.063 -2.457,-3.056 -4.803,-0.131 -1.748,2.172 -3.825,3.013 -6.537,2.362 -6.098,-1.456 -11.692,-3.854 -15.903,-8.722 -2.193,-2.53 -4.292,-5.155 -6.346,-7.809 -2.79,-3.59 -5.506,-7.235 -8.204,-10.896 l 5.016,-44.189 z"
           style="fill:#f35c00;fill-opacity:1;fill-rule:nonzero;stroke:none"
           id="path25452" /><path
           d="m 270.214,28.984 h 81.487 l 0.591,54.402 z"
           style="fill:#b5b995;fill-opacity:1;fill-rule:nonzero;stroke:none"
           id="path25454" /><path
           d="m 155.325,90.801 20.522,-61.817 h 94.367 l 82.078,54.402 z"
           style="fill:#c2b266;fill-opacity:1;fill-rule:nonzero;stroke:none"
           id="path25456" /><path
           d="M 155.325,90.801 352.292,83.386 190.085,190.442 Z"
           style="fill:#d3bf53;fill-opacity:1;fill-rule:nonzero;stroke:none"
           id="path25458" /><path
           d="m 303.307,560.579 c 2.193,1.635 4.42,3.229 6.682,4.776 5.221,3.576 10.872,5.989 17.102,7.173 4.24,0.804 8.481,1.477 12.781,1.879 5.433,0.504 5.433,0.534 5.381,5.857 0,0.395 -0.022,0.79 -0.015,1.199 0.023,2.793 -1.002,5.111 -3.085,6.997 -3.876,3.51 -8.233,6.266 -13.467,6.837 -11.377,1.227 -22.498,0.453 -32.83,-5.192 -2.873,-1.572 -5.804,-3.034 -8.759,-4.446 -1.286,-0.621 -2.668,-1.053 -4.035,-1.476 -1.624,-0.497 -2.531,-0.015 -2.172,1.857 0.125,0.629 0.226,1.258 0.38,1.879 1.616,6.441 3.941,12.642 6.229,18.856 3.979,10.825 8.215,21.55 12.485,32.262 L 212.33,628.403 Z"
           style="fill:#ff8500;fill-opacity:1;fill-rule:nonzero;stroke:none"
           id="path25460" /><path
           d="m 148.374,482.88 92.753,23.577 c 6.542,4.679 12.89,9.63 19.43,14.314 7.706,5.519 14.879,11.581 20.121,19.645 1.119,1.726 2.617,3.246 4.124,4.657 5.894,5.507 12.05,10.692 18.505,15.506 l -90.977,67.824 z"
           style="fill:#fe9400;fill-opacity:1;fill-rule:nonzero;stroke:none"
           id="path25462" /><path
           d="m 207.314,672.592 c -6.407,-8.696 -12.709,-17.473 -19.617,-25.786 l 24.633,-18.403 z"
           style="fill:#f04f00;fill-opacity:1;fill-rule:nonzero;stroke:none"
           id="path25464" /><path
           d="m 187.697,646.806 c -0.456,-0.55 -0.912,-1.1 -1.374,-1.645 -4.674,-5.52 -9.536,-10.884 -13.871,-16.662 l 39.878,-0.096 z"
           style="fill:#f64e00;fill-opacity:1;fill-rule:nonzero;stroke:none"
           id="path25466" /><path
           d="m 234.576,362.383 -15.75,0.087 c -9.596,-10.814 -19.177,-21.649 -29.454,-31.821 -0.878,-0.877 -1.944,-2.537 -2.947,-2.098 -1.353,0.599 -0.928,2.537 -0.826,3.897 0.38,4.943 0.965,9.864 1.316,14.799 0.37,5.14 0.825,10.27 1.364,15.39 l -88.412,0.484 C 97.243,350.889 94.625,338.656 92.021,326.42 l 98.064,-135.978 z"
           style="fill:#fb9b00;fill-opacity:1;fill-rule:nonzero;stroke:none"
           id="path25468" /><path
           d="m 190.513,380.353 c 1.708,11.56 4.068,22.992 6.609,34.384 l -48.748,68.143 -32.811,-47.29 c -3.625,-15.69 -6.884,-31.463 -10.273,-47.209 -1.809,-8.42 -3.617,-16.84 -5.423,-25.26 l 88.412,-0.484 c 0.624,5.921 1.363,11.827 2.234,17.716"
           style="fill:#ffa300;fill-opacity:1;fill-rule:nonzero;stroke:none"
           id="path25470" /><path
           d="m 227.591,372.147 c -2.512,-2.713 -5.007,-5.446 -7.467,-8.215 -0.433,-0.489 -0.865,-0.975 -1.298,-1.462 l 15.75,-0.087 z"
           style="fill:#ffa300;fill-opacity:1;fill-rule:nonzero;stroke:none"
           id="path25472" /><path
           d="m 212.33,628.403 -39.878,0.096 c -1.844,-2.458 -3.594,-4.989 -5.19,-7.642 -6.741,-11.201 -11.808,-23.184 -16.51,-35.329 -8.283,-21.393 -14.981,-43.108 -14.922,-66.432 0.016,-6.783 -0.689,-13.441 -1.924,-19.998 l 14.468,-16.218 z"
           style="fill:#fd7700;fill-opacity:1;fill-rule:nonzero;stroke:none"
           id="path25474" /><path
           d="M 92.021,326.42 C 82.839,283.289 73.84,240.121 65.433,196.827 l 124.652,-6.385 z"
           style="fill:#f56500;fill-opacity:1;fill-rule:nonzero;stroke:none"
           id="path25476" /><path
           d="m 113.02,28.984 h 62.827 l -20.522,61.817 z"
           style="fill:#bc5024;fill-opacity:1;fill-rule:nonzero;stroke:none"
           id="path25478" /><path
           d="M 190.085,190.442 65.433,196.827 C 64.414,191.581 63.401,186.335 62.4,181.085 60.884,173.111 59.871,165.166 61.093,157.186 L 155.325,90.801 Z"
           style="fill:#e07000;fill-opacity:1;fill-rule:nonzero;stroke:none"
           id="path25480" /><path
           d="m 129.166,480.886 c -0.928,-2.837 -1.929,-5.658 -2.987,-8.467 -2.428,-6.419 -4.76,-12.883 -6.442,-19.551 -1.459,-5.744 -2.839,-11.506 -4.174,-17.278 l 32.811,47.29 z"
           style="fill:#ff8800;fill-opacity:1;fill-rule:nonzero;stroke:none"
           id="path25482" /><path
           d="m 133.906,499.098 c -1.158,-6.153 -2.782,-12.218 -4.74,-18.212 l 19.208,1.994 z"
           style="fill:#fd7400;fill-opacity:1;fill-rule:nonzero;stroke:none"
           id="path25484" /><path
           d="M 78.418,70.853 C 74.68,60.519 70.8,50.233 66.948,39.937 66.736,39.359 66.392,38.789 65.969,38.336 63.425,35.542 61.274,32.501 59.834,28.984 h 53.186 l 42.305,61.817 z"
           style="fill:#c22c00;fill-opacity:1;fill-rule:nonzero;stroke:none"
           id="path25486" /><path
           d="m 61.093,157.186 c 0.175,-1.139 0.394,-2.277 0.664,-3.416 3.495,-14.711 9.475,-19.295 21.087,-21.204 2.588,-0.424 5.177,-0.979 7.626,-2.003 3.72,-1.573 4.789,-3.583 4.137,-7.545 -0.577,-3.554 -1.425,-7.041 -2.426,-10.492 C 88.118,98.451 83.395,84.608 78.418,70.853 l 76.907,19.948 z"
           style="fill:#d54200;fill-opacity:1;fill-rule:nonzero;stroke:none"
           id="path25488" /></g></g></g></svg>
